{"title":"WWE Total Divas S01E13 HDTV x264-CRiMSON -={SPARROW}=-","uid":9323981,"size":381254800,"categoryP":"video","categoryS":"tv_shows","magnet":"?xt=urn:btih:2b9e2b50af327bb63ef367df24ffa33e04641f52&amp;dn=WWE+Total+Divas+S01E13+HDTV+x264-CRiMSON+-%3D%7BSPARROW%7D%3D-&amp;tr=udp%3A%2F%2Ftracker.openbittorrent.com%3A80&amp;tr=udp%3A%2F%2Fopen.demonii.com%3A1337&amp;tr=udp%3A%2F%2Ftracker.coppersurfer.tk%3A6969&amp;tr=udp%3A%2F%2Fexodus.desync.com%3A6969","seeders":1,"leechers":0,"uploader":"CenaCme","files":-1,"time":1386601033,"description":"Total Divas S01E13 HDTV x264-CRiMSON\n\nFile Info:\nComplete name                            : Total.Divas.S01E13.HDTV.x264-CRiMSON.mp4\nFormat                                  : MPEG-4\nFormat profile                          : Base Media\nCodec ID                                : isom\nFile size                                : 364 MiB\nDuration                                : 43mn 26s\nOverall bit rate mode                    : Variable\nOverall bit rate                        : 1 170 Kbps\nEncoded date                            : UTC 2013-12-09 10:59:05\nTagged date                              : UTC 2013-12-09 10:59:05\n\nVideo\nID                                      : 1\nFormat                                  : AVC\nFormat/Info                              : Advanced Video Codec\nFormat profile                          : &lt;a class=&quot;__cf_email__&quot; href=&quot;/cdn-cgi/l/email-protection&quot; data-cfemail=&quot;256d4c424d6569160b14&quot;&gt;[email&amp;#160;protected]&lt;/a&gt;&lt;script data-cfhash='f9e31' type=&quot;text/javascript&quot;&gt;\n/* &lt;![CDATA[ */!function(){try{var t=&quot;currentScript&quot;in document?document.currentScript:function(){for(var t=document.getElementsByTagName(&quot;script&quot;),e=t.length;e--;)if(t[e].getAttribute(&quot;data-cfhash&quot;))return t[e]}();if(t&amp;&amp;t.previousSibling){var e,r,n,i,c=t.previousSibling,a=c.getAttribute(&quot;data-cfemail&quot;);if(a){for(e=&quot;&quot;,r=parseInt(a.substr(0,2),16),n=2;a.length-n;n+=2)i=parseInt(a.substr(n,2),16)^r,e+=String.fromCharCode(i);e=document.createTextNode(e),c.parentNode.replaceChild(e,c)}t.parentNode.removeChild(t);}}catch(u){}}()/* ]]&gt; */&lt;/script&gt;\nFormat settings, CABAC                  : Yes\nFormat settings, ReFrames                : 5 frames\nCodec ID                                : avc1\nCodec ID/Info                            : Advanced Video Coding\nDuration                                : 43mn 26s\nBit rate                                : 1 026 Kbps\nMaximum bit rate                        : 4 738 Kbps\nWidth                                    : 720 pixels\nHeight                                  : 406 pixels\nDisplay aspect ratio                    : 16:9\nFrame rate mode                          : Constant\nFrame rate                              : 23.976 fps\nColor space                              : YUV\nChroma subsampling                      : 4:2:0\nBit depth                                : 8 bits\nScan type                                : Progressive\nBits/(Pixel*Frame)                      : 0.146\nStream size                              : 319 MiB (88%)\nWriting library                          : x264 core 140 r2377 1ca7bb9\nEncoding settings                        : cabac=1 / ref=5 / deblock=1:-1:-1\nEncoded date                            : UTC 2013-12-09 10:52:24\nTagged date                              : UTC 2013-12-09 10:59:10\nColor primaries                          : BT.709\nTransfer characteristics                : BT.709\nMatrix coefficients                      : BT.709\n\nAudio\nID                                      : 2\nFormat                                  : AAC\nFormat/Info                              : Advanced Audio Codec\nFormat profile                          : LC\nCodec ID                                : 40\nDuration                                : 43mn 26s\nBit rate mode                            : Variable\nBit rate                                : 140 Kbps\nMaximum bit rate                        : 164 Kbps\nChannel(s)                              : 2 channels\nChannel positions                        : Front: L R\nSampling rate                            : 48.0 KHz\nCompression mode                        : Lossy\nStream size                              : 43.6 MiB (12%)\nEncoded date                            : UTC 2013-12-09 10:53:17\nTagged date                              : UTC 2013-12-09 10:59:10\n\nThanx to &quot;Crimson&quot; ;-)","torrent":{"xt":"urn:btih:2b9e2b50af327bb63ef367df24ffa33e04641f52","amp;dn":"WWE+Total+Divas+S01E13+HDTV+x264-CRiMSON+-%3D%7BSPARROW%7D%3D-","amp;tr":["udp%3A%2F%2Ftracker.openbittorrent.com%3A80","udp%3A%2F%2Fopen.demonii.com%3A1337","udp%3A%2F%2Ftracker.coppersurfer.tk%3A6969","udp%3A%2F%2Fexodus.desync.com%3A6969"],"infoHash":"2b9e2b50af327bb63ef367df24ffa33e04641f52","infoHashBuffer":{"type":"Buffer","data":[43,158,43,80,175,50,123,182,62,243,103,223,36,255,163,62,4,100,31,82]},"announce":[],"urlList":[]}}